<svg width="167" height="172" viewBox="0 0 167 172" fill="none" xmlns="http://www.w3.org/2000/svg">
<path d="M85.271 17.426C85.265 17.42 84.919 17.417 84.233 17.417C83.547 17.417 82.861 17.0723 82.175 16.383C81.489 15.6937 80.46 15.349 79.088 15.349C77.716 15.349 76.687 15.349 76.001 15.349C75.315 15.349 72.228 16.383 66.74 18.451C61.252 20.519 56.793 21.8977 53.363 22.587C49.933 23.2763 46.503 24.3103 43.073 25.689C39.643 27.0677 36.899 28.1017 34.841 28.791C32.783 29.4803 31.411 30.1697 30.725 30.859C30.039 31.5483 29.353 31.893 28.667 31.893C27.981 31.893 27.295 32.5824 26.609 33.961C25.923 35.3397 24.208 38.097 21.464 42.233C18.72 46.369 16.662 49.471 15.29 51.539C13.918 53.607 12.546 56.709 11.174 60.845C9.802 64.981 8.77301 67.7384 8.08701 69.117C7.40101 70.4957 6.715 74.287 6.029 80.491C5.343 86.695 5 90.1417 5 90.831C5 91.5204 5.343 94.967 6.029 101.171C6.715 107.375 7.74401 112.545 9.11601 116.681C10.488 120.817 12.546 125.298 15.29 130.123C18.034 134.948 20.435 138.395 22.493 140.463C24.551 142.531 27.638 145.288 31.754 148.735C35.87 152.182 38.957 154.25 41.015 154.939C43.073 155.628 46.503 157.007 51.305 159.075C56.107 161.143 60.566 162.522 64.682 163.211C68.798 163.9 72.571 164.59 76.001 165.279C79.431 165.968 84.233 166.313 90.407 166.313C96.581 166.313 102.069 166.313 106.871 166.313C111.673 166.313 115.789 166.313 119.219 166.313C122.649 166.313 125.393 165.968 127.451 165.279C129.509 164.59 131.91 163.211 134.654 161.143C137.398 159.075 139.113 158.041 139.799 158.041C140.485 158.041 142.2 156.662 144.944 153.905C147.688 151.148 149.746 148.39 151.118 145.633C152.49 142.876 153.862 140.118 155.234 137.361C156.606 134.604 157.292 132.191 157.292 130.123C157.292 128.055 157.635 125.642 158.321 122.885C159.007 120.128 159.35 118.06 159.35 116.681C159.35 115.302 159.693 112.545 160.379 108.409C161.065 104.273 161.408 101.86 161.408 101.171C161.408 100.482 161.408 97.7244 161.408 92.899C161.408 88.0737 161.408 84.9717 161.408 83.593C161.408 82.2144 161.065 80.1463 160.379 77.389C159.693 74.6317 159.007 72.219 158.321 70.151C157.635 68.083 156.949 65.6703 156.263 62.913C155.577 60.1557 155.234 58.4324 155.234 57.743C155.234 57.0537 154.891 56.0197 154.205 54.641C153.519 53.2623 152.833 51.8837 152.147 50.505C151.461 49.1264 151.118 47.7477 151.118 46.369C151.118 44.9903 150.432 43.6117 149.06 42.233C147.688 40.8543 146.659 40.165 145.973 40.165C145.287 40.165 143.915 38.7863 141.857 36.029C139.799 33.2717 138.427 31.5483 137.741 30.859C137.055 30.1697 135.683 29.1357 133.625 27.757C131.567 26.3783 130.195 25.3444 129.509 24.655C128.823 23.9657 128.137 23.2763 127.451 22.587C126.765 21.8977 125.736 21.2083 124.364 20.519C122.992 19.8297 121.62 19.1403 120.248 18.451C118.876 17.7617 117.847 17.417 117.161 17.417C116.475 17.417 114.76 16.7277 112.016 15.349C109.272 13.9704 107.557 12.9363 106.871 12.247C106.185 11.5577 105.499 11.213 104.813 11.213C104.127 11.213 103.441 10.8683 102.755 10.179C102.069 9.48966 101.383 9.14501 100.697 9.14501C100.011 9.14501 99.325 9.14501 98.639 9.14501C97.953 9.14501 96.924 9.14501 95.552 9.14501C94.18 9.14501 92.465 8.80035 90.407 8.11102C88.349 7.42169 86.634 7.077 85.262 7.077C83.89 7.077 82.861 7.077 82.175 7.077C81.489 7.077 80.46 6.73235 79.088 6.04302L77.021 5" stroke="#706868" stroke-width="9.4" stroke-miterlimit="10" stroke-linecap="round" stroke-linejoin="round"/>
<path d="M56.4214 75.3306H56.4777" stroke="#706868" stroke-width="30" stroke-miterlimit="10" stroke-linecap="round" stroke-linejoin="round"/>
<path d="M120.219 79.4666C120.239 79.4666 119.905 79.8113 119.219 80.5006L118.219 81.5346" stroke="#706868" stroke-width="30" stroke-miterlimit="10" stroke-linecap="round" stroke-linejoin="round"/>
</svg>
